<svg xmlns="http://www.w3.org/2000/svg" xmlns:xlink="http://www.w3.org/1999/xlink" viewBox="0 0 223.28 55"><defs><style>.cls-1{fill:none;}.cls-2{fill:#8b77e8;}.cls-3{clip-path:url(#clip-path);}.cls-4{fill:#812cd3;}.cls-5{fill:#802cd3;}.cls-6{fill:#7f2cd3;}.cls-7{fill:#7e2cd3;}.cls-8{fill:#7d2cd3;}.cls-9{fill:#7c2cd3;}.cls-10{fill:#7b2cd3;}.cls-11{fill:#7a2cd3;}.cls-12{fill:#792cd3;}.cls-13{fill:#782cd2;}.cls-14{fill:#772cd2;}.cls-15{fill:#762cd2;}.cls-16{fill:#752cd2;}.cls-17{fill:#742cd2;}.cls-18{fill:#732cd2;}.cls-19{fill:#722cd2;}.cls-20{fill:#712cd2;}.cls-21{fill:#702cd2;}.cls-22{fill:#6f2cd2;}.cls-23{fill:#6e2cd2;}.cls-24{fill:#6d2cd2;}.cls-25{fill:#6c2cd2;}.cls-26{fill:#6b2cd2;}.cls-27{fill:#6a2cd2;}.cls-28{fill:#692cd2;}.cls-29{fill:#682cd2;}.cls-30{fill:#672cd2;}.cls-31{fill:#652dd1;}.cls-32{fill:#642dd1;}.cls-33{fill:#632dd1;}.cls-34{fill:#622dd1;}.cls-35{fill:#612dd1;}.cls-36{fill:#602dd1;}.cls-37{fill:#5f2dd1;}.cls-38{fill:#5e2dd1;}.cls-39{fill:#5d2dd1;}.cls-40{fill:#5c2dd1;}.cls-41{fill:#5b2dd1;}.cls-42{fill:#5a2dd1;}.cls-43{fill:#592dd1;}.cls-44{fill:#582dd1;}.cls-45{fill:#572dd1;}.cls-46{fill:#562dd1;}.cls-47{fill:#552dd1;}.cls-48{fill:#542dd1;}.cls-49{fill:#532dd0;}.cls-50{fill:#522dd0;}.cls-51{fill:#512dd0;}.cls-52{fill:#502dd0;}.cls-53{fill:#4f2dd0;}.cls-54{fill:#4e2dd0;}.cls-55{fill:#4d2dd0;}.cls-56{fill:#4c2dd0;}.cls-57{fill:#4b2dd0;}</style><clipPath id="clip-path"><circle class="cls-1" cx="27.5" cy="27.5" r="27.5"/></clipPath></defs><title>Recurso 1</title><g id="Capa_2" data-name="Capa 2"><g id="Capa_2-2" data-name="Capa 2"><path class="cls-2" d="M72.4,11.75V32.31h8.08v4.75H66.24V11.75Z"/><path class="cls-2" d="M92.59,37.35c-5.91,0-10.38-4-10.38-10.35s4.58-10.34,10.45-10.34,10.46,4,10.46,10.34S98.5,37.35,92.59,37.35Zm0-5.33c2.2,0,4.26-1.63,4.26-5s-2-5-4.19-5-4.18,1.59-4.18,5S90.36,32,92.59,32Z"/><path class="cls-2" d="M114,16.66a7,7,0,0,1,6.2,3.13V16.94h6.17V37c0,5.37-3.1,9.95-10.06,9.95-6,0-9.88-3-10.42-7.82H112c.4,1.51,1.91,2.48,4,2.48,2.34,0,4.18-1.22,4.18-4.61V34.18a7.09,7.09,0,0,1-6.2,3.17c-4.94,0-8.87-4-8.87-10.38S109.1,16.66,114,16.66Zm1.8,5.37c-2.3,0-4.39,1.73-4.39,4.94s2.09,5,4.39,5,4.4-1.77,4.4-5S118.19,22,115.84,22Z"/><path class="cls-2" d="M140,37.35c-5.92,0-10.39-4-10.39-10.35s4.58-10.34,10.46-10.34,10.45,4,10.45,10.34S146,37.35,140,37.35ZM140,32c2.2,0,4.25-1.63,4.25-5s-2-5-4.18-5-4.18,1.59-4.18,5S137.8,32,140,32Z"/><path class="cls-2" d="M154.82,22.06h-2.45V16.94h2.45V12H161v4.9h4v5.12h-4v8.08c0,1.19.51,1.7,1.88,1.7h2.2v5.22h-3.14c-4.18,0-7.1-1.76-7.1-7Z"/><path class="cls-2" d="M167.9,11.54a3.68,3.68,0,1,1,3.68,3.31A3.4,3.4,0,0,1,167.9,11.54Zm.58,5.4h6.17V37.06h-6.17Z"/><path class="cls-2" d="M191.48,16.66c4.94,0,8.87,4,8.87,10.31s-3.93,10.38-8.87,10.38a7.23,7.23,0,0,1-6.2-3.1V46.66h-6.16V16.94h6.16v2.85A7.11,7.11,0,0,1,191.48,16.66ZM189.65,22c-2.31,0-4.4,1.77-4.4,5s2.09,5,4.4,5,4.43-1.8,4.43-5S192,22,189.65,22Z"/><path class="cls-2" d="M212.75,37.35c-5.91,0-10.38-4-10.38-10.35S207,16.66,212.83,16.66s10.45,4,10.45,10.34S218.67,37.35,212.75,37.35Zm0-5.33c2.2,0,4.26-1.63,4.26-5s-2-5-4.18-5-4.19,1.59-4.19,5S210.52,32,212.75,32Z"/><g class="cls-3"><path class="cls-4" d="M0,0V0Z"/><rect class="cls-4" width="1.02" height="55"/><rect class="cls-5" x="1.02" width="1.02" height="55"/><rect class="cls-6" x="2.04" width="1.02" height="55"/><rect class="cls-7" x="3.06" width="1.02" height="55"/><rect class="cls-8" x="4.07" width="1.02" height="55"/><rect class="cls-9" x="5.09" width="1.02" height="55"/><rect class="cls-10" x="6.11" width="1.02" height="55"/><rect class="cls-11" x="7.13" width="1.02" height="55"/><rect class="cls-12" x="8.15" width="1.02" height="55"/><rect class="cls-13" x="9.17" width="1.02" height="55"/><rect class="cls-14" x="10.19" width="1.02" height="55"/><rect class="cls-15" x="11.2" width="1.02" height="55"/><rect class="cls-16" x="12.22" width="1.02" height="55"/><rect class="cls-17" x="13.24" width="1.02" height="55"/><rect class="cls-18" x="14.26" width="1.02" height="55"/><rect class="cls-19" x="15.28" width="1.02" height="55"/><rect class="cls-20" x="16.3" width="1.02" height="55"/><rect class="cls-21" x="17.31" width="1.02" height="55"/><rect class="cls-22" x="18.33" width="1.02" height="55"/><rect class="cls-23" x="19.35" width="1.02" height="55"/><rect class="cls-24" x="20.37" width="1.02" height="55"/><rect class="cls-25" x="21.39" width="1.02" height="55"/><rect class="cls-26" x="22.41" width="1.02" height="55"/><rect class="cls-27" x="23.43" width="1.02" height="55"/><rect class="cls-28" x="24.44" width="1.02" height="55"/><rect class="cls-29" x="25.46" width="1.02" height="55"/><rect class="cls-30" x="26.48" width="1.02" height="55"/><rect class="cls-31" x="27.5" width="1.02" height="55"/><rect class="cls-32" x="28.52" width="1.02" height="55"/><rect class="cls-33" x="29.54" width="1.02" height="55"/><rect class="cls-34" x="30.56" width="1.02" height="55"/><rect class="cls-35" x="31.57" width="1.02" height="55"/><rect class="cls-36" x="32.59" width="1.02" height="55"/><rect class="cls-37" x="33.61" width="1.02" height="55"/><rect class="cls-38" x="34.63" width="1.02" height="55"/><rect class="cls-39" x="35.65" width="1.02" height="55"/><rect class="cls-40" x="36.67" width="1.02" height="55"/><rect class="cls-41" x="37.69" width="1.02" height="55"/><rect class="cls-42" x="38.7" width="1.02" height="55"/><rect class="cls-43" x="39.72" width="1.02" height="55"/><rect class="cls-44" x="40.74" width="1.02" height="55"/><rect class="cls-45" x="41.76" width="1.02" height="55"/><rect class="cls-46" x="42.78" width="1.02" height="55"/><rect class="cls-47" x="43.8" width="1.02" height="55"/><rect class="cls-48" x="44.81" width="1.02" height="55"/><rect class="cls-49" x="45.83" width="1.02" height="55"/><rect class="cls-50" x="46.85" width="1.02" height="55"/><rect class="cls-51" x="47.87" width="1.02" height="55"/><rect class="cls-52" x="48.89" width="1.02" height="55"/><rect class="cls-53" x="49.91" width="1.02" height="55"/><rect class="cls-54" x="50.93" width="1.02" height="55"/><rect class="cls-55" x="51.94" width="1.02" height="55"/><rect class="cls-56" x="52.96" width="1.02" height="55"/><rect class="cls-57" x="53.98" width="1.02" height="55"/><path class="cls-57" d="M55,55v0Z"/></g></g></g></svg>